<svg width="76" height="77" viewBox="0 0 76 77" fill="none" xmlns="http://www.w3.org/2000/svg">
<g clip-path="url(#clip0_151_218)">
<path d="M76 38.5C76 48.5782 71.9964 58.2437 64.8701 65.3701C57.7437 72.4964 48.0782 76.5 38 76.5C27.9218 76.5 18.2563 72.4964 11.1299 65.3701C4.00356 58.2437 0 48.5782 0 38.5C0 28.4218 4.00356 18.7563 11.1299 11.6299C18.2563 4.50356 27.9218 0.5 38 0.5C48.0782 0.5 57.7437 4.50356 64.8701 11.6299C71.9964 18.7563 76 28.4218 76 38.5ZM38 17.125C38 16.4951 37.7498 15.891 37.3044 15.4456C36.859 15.0002 36.2549 14.75 35.625 14.75C34.9951 14.75 34.391 15.0002 33.9456 15.4456C33.5002 15.891 33.25 16.4951 33.25 17.125V43.25C33.2501 43.6686 33.3609 44.0798 33.5711 44.4418C33.7813 44.8038 34.0835 45.1039 34.447 45.3115L51.072 54.8115C51.6176 55.1064 52.2568 55.1761 52.8532 55.0059C53.4495 54.8356 53.9556 54.4389 54.2633 53.9004C54.571 53.362 54.6558 52.7246 54.4998 52.1244C54.3437 51.5242 53.959 51.0088 53.428 50.6885L38 41.8725V17.125Z" fill="#550312"/>
</g>
<defs>
<clipPath id="clip0_151_218">
<rect width="76" height="76" fill="white" transform="translate(0 0.5)"/>
</clipPath>
</defs>
</svg>
